<svg version="1.1" id="Layer_1" xmlns="http://www.w3.org/2000/svg" xmlns:xlink="http://www.w3.org/1999/xlink" x="0px" y="0px"
	 width="100%" viewBox="0 0 1024 1024" enable-background="new 0 0 1024 1024" xml:space="preserve">
<path fill="#000000" opacity="1.000000" stroke="none" 
	d="
M379.972595,450.663025 
	C379.194336,452.959015 378.027313,454.391388 375.889893,454.239807 
	C372.257080,453.982208 371.162476,456.106659 370.185211,459.135406 
	C365.622650,473.275452 357.974976,485.329071 345.697723,494.107697 
	C343.555847,495.639191 342.568573,497.641541 342.268951,500.391724 
	C337.494263,544.220764 314.188049,573.980103 272.984314,589.004883 
	C244.326813,599.454773 214.515823,600.111450 185.661697,590.929565 
	C147.157516,578.676880 122.279884,552.284424 115.246613,511.793671 
	C113.487900,501.668732 110.852310,494.335114 102.652084,487.754944 
	C93.889076,480.723236 88.758362,470.375305 85.890579,459.342773 
	C84.999054,455.912964 83.739914,453.874512 79.918381,454.314423 
	C77.343712,454.610840 76.059830,453.372864 75.332237,450.858185 
	C66.487381,420.288879 86.596222,384.496948 118.693481,380.510834 
	C137.063553,378.229523 152.976730,382.924866 166.036697,396.195068 
	C168.839813,399.043365 171.027405,399.689148 175.068695,398.135345 
	C195.538666,390.264954 216.769440,387.568848 238.694855,389.366425 
	C252.561539,390.503265 266.074036,392.749054 278.937927,398.147522 
	C282.496277,399.640839 284.834381,398.319580 287.287689,395.820160 
	C297.603699,385.310547 310.386383,380.189240 324.939575,379.874664 
	C349.943878,379.334229 370.521454,395.487030 378.168213,416.434937 
	C382.209961,427.507172 382.887848,438.791290 379.972595,450.663025 
M346.297394,386.244720 
	C333.789093,380.919678 321.100067,380.893616 308.303253,385.038483 
	C299.833130,387.781982 293.139618,393.252319 286.888397,399.334656 
	C285.137878,401.037842 283.424683,402.595123 280.775513,401.373596 
	C268.698242,395.804962 255.975922,393.063904 242.746658,391.950226 
	C220.084061,390.042419 197.764771,391.228333 176.535706,399.911865 
	C170.766495,402.271729 167.731995,401.263641 163.696533,397.158356 
	C150.639923,383.875793 134.297333,379.669983 116.437584,383.075806 
	C88.410774,388.420532 70.400101,419.028015 76.470596,447.346191 
	C77.213531,450.811890 78.988297,452.815796 82.523056,452.555298 
	C85.961777,452.301910 86.931938,453.891907 87.709068,457.007233 
	C91.429718,471.922638 99.373863,484.169037 112.134804,492.919373 
	C115.156807,494.991638 116.427185,497.322266 116.262405,500.758850 
	C116.013626,505.947021 116.694641,511.069275 117.863586,516.084045 
	C124.934067,546.416687 142.979645,568.602905 170.364258,582.375916 
	C202.444824,598.510559 236.422379,598.859375 269.858917,587.648560 
	C310.572235,573.997986 334.582703,545.422424 339.921478,502.084137 
	C340.316315,498.878967 339.912933,495.121063 343.501892,492.692505 
	C356.489105,483.904297 364.326111,471.408722 368.569641,456.531586 
	C369.254974,454.128967 370.190308,452.598022 372.877686,452.669189 
	C376.648926,452.769135 377.994293,450.445801 378.713684,447.137878 
	C383.981079,422.916626 370.722473,397.492371 346.297394,386.244720 
z"/>
<path fill="#000000" opacity="1.000000" stroke="none" 
	d="
M537.769592,515.558289 
	C531.835266,492.854675 526.229736,470.444092 520.638672,448.029938 
	C516.455750,431.261078 512.330566,414.477661 508.098999,397.721130 
	C506.444763,391.170532 506.765656,390.639618 513.634766,390.617767 
	C519.301086,390.599701 524.981934,390.864288 530.628601,390.531952 
	C534.088989,390.328308 535.317383,391.800079 535.970703,394.824890 
	C540.707825,416.756927 545.507202,438.675598 550.330444,460.588898 
	C550.923889,463.285187 551.774963,465.924774 553.496887,468.592987 
	C555.541016,458.917755 557.637268,449.253174 559.617004,439.564789 
	C562.577332,425.077698 565.584717,410.597839 568.285339,396.061615 
	C569.035278,392.025299 570.627441,390.294434 574.843018,390.563904 
	C579.656677,390.871552 584.518127,390.862305 589.333557,390.571960 
	C593.143127,390.342285 594.650146,391.976654 595.350769,395.503632 
	C599.621826,417.003296 604.017151,438.478271 608.394531,459.956726 
	C609.180542,463.813385 610.076111,467.647766 612.031555,471.571960 
	C613.895935,462.734619 615.806763,453.906799 617.614807,445.057922 
	C621.040894,428.289978 624.393433,411.507050 627.819214,394.739075 
	C628.217712,392.788422 628.651428,390.682922 631.370056,390.682251 
	C638.832581,390.680328 646.295105,390.681549 653.812012,390.681549 
	C655.505920,396.450348 653.128113,401.348206 652.029541,406.218475 
	C645.227234,436.374451 638.104065,466.457977 631.109802,496.570770 
	C629.906921,501.749390 628.696533,506.931183 627.709595,512.153137 
	C627.150574,515.110535 625.765076,516.436279 622.675232,516.377747 
	C615.678040,516.245117 608.675659,516.252991 601.677734,516.356567 
	C599.037415,516.395630 597.808594,515.346008 597.258911,512.777039 
	C592.772156,491.807892 588.197998,470.857452 583.646423,449.902191 
	C583.124451,447.499023 582.578430,445.101044 581.735291,441.317169 
	C578.864258,448.907166 577.896606,455.537994 576.522400,462.007996 
	C572.966797,478.748260 568.804993,495.365143 566.053833,512.274353 
	C565.731934,514.253113 565.291199,516.352539 562.538574,516.299133 
	C554.394043,516.141113 546.232056,516.930908 537.769592,515.558289 
M556.127502,467.314453 
	C555.038940,470.242584 555.392273,473.809326 551.991760,476.563934 
	C550.791565,471.709015 549.639038,467.435486 548.684021,463.118256 
	C543.876099,441.382202 539.026550,419.654419 534.426758,397.874023 
	C533.546326,393.705566 531.904907,391.884705 527.484985,392.291016 
	C523.353760,392.670837 519.158997,392.331787 514.992676,392.366119 
	C509.314178,392.412872 509.094696,392.694763 510.404602,397.941193 
	C512.377014,405.841095 514.380005,413.733337 516.340454,421.636169 
	C523.622864,450.992615 530.956482,480.336731 538.086792,509.730133 
	C538.961853,513.337280 540.512268,514.815674 544.183411,514.651978 
	C548.841187,514.444336 553.542480,514.268433 558.172729,514.674683 
	C562.311523,515.037842 563.695801,513.141663 564.430359,509.541504 
	C568.481750,489.686798 572.511353,469.825195 576.885132,450.040405 
	C577.980835,445.084137 577.880615,439.634155 581.147522,434.595886 
	C582.856262,437.802063 583.865234,440.373566 584.466675,443.162231 
	C589.299561,465.571136 594.296265,487.945557 598.964111,510.388489 
	C599.682251,513.841614 601.061096,514.716248 604.270935,514.578491 
	C608.926819,514.378784 613.630005,514.266418 618.258057,514.701477 
	C623.483826,515.192566 625.563538,513.020325 626.652649,508.046722 
	C632.693909,480.459290 639.010010,452.931915 645.264343,425.391327 
	C647.683044,414.740784 650.186768,404.109619 652.906738,392.369263 
	C646.549194,392.369263 640.963806,392.616302 635.412903,392.285553 
	C631.478638,392.051117 630.106445,393.956116 629.430359,397.312347 
	C624.739502,420.598572 620.087219,443.893402 615.185242,467.135406 
	C614.397705,470.869476 614.824524,475.141052 611.874695,478.294312 
	C609.488037,477.498047 609.334534,475.421204 608.978455,473.779999 
	C606.795166,463.717316 604.741028,453.625854 602.723572,443.528076 
	C599.632141,428.054932 596.590393,412.571777 593.562805,397.085999 
	C592.941406,393.907318 591.558411,392.052460 587.880493,392.309174 
	C583.899902,392.587006 579.872131,392.568634 575.888916,392.309937 
	C572.541748,392.092560 571.070007,393.502350 570.441284,396.628632 
	C565.756470,419.923615 560.999207,443.204010 556.127502,467.314453 
z"/>
<path fill="#000000" opacity="1.000000" stroke="none" 
	d="
M443.203094,470.808380 
	C440.807220,472.306061 441.384918,474.736115 441.370758,476.903992 
	C441.296814,488.228729 441.202301,499.556305 441.390869,510.878265 
	C441.458069,514.912659 440.211700,516.579590 435.995422,516.417480 
	C429.195251,516.156006 422.377655,516.347168 414.845093,516.347168 
	C414.845093,474.392242 414.845093,432.784424 414.845093,390.227112 
	C422.945862,390.227112 430.721802,390.182251 438.496826,390.247864 
	C441.889832,390.276489 441.277100,392.973236 441.286011,395.012543 
	C441.339874,407.336792 441.319550,419.661377 441.323761,431.985870 
	C441.324432,433.946442 441.323853,435.907013 441.323853,437.725037 
	C443.549255,438.323486 443.881195,436.879608 444.439178,436.045288 
	C453.600006,422.348724 462.803192,408.678497 471.760651,394.849365 
	C473.710693,391.838776 475.807465,390.454803 479.419312,390.568085 
	C486.505737,390.790283 493.604004,390.633392 500.295532,390.633392 
	C501.566467,393.387177 500.238586,394.654907 499.326538,395.977112 
	C487.892395,412.553497 476.523376,429.176270 464.911774,445.627716 
	C462.247833,449.402069 461.837494,452.199615 464.644897,456.290924 
	C476.603241,473.718384 488.176178,491.410645 499.847473,509.034271 
	C501.099518,510.924896 502.792725,512.689697 502.592896,515.620117 
	C498.144531,517.114075 493.423615,515.603210 488.986328,516.431152 
	C476.565887,518.748901 469.160126,513.610657 463.496704,502.545471 
	C457.838623,491.490784 450.195862,481.451874 443.203094,470.808380 
M465.693146,408.137726 
	C457.317810,420.128723 450.054779,432.914856 440.684418,444.740204 
	C438.504028,441.689026 438.743469,439.167053 438.745300,436.686157 
	C438.755005,423.521240 438.661255,410.355194 438.822449,397.192200 
	C438.867493,393.514069 437.663025,392.064240 433.920013,392.302612 
	C429.936707,392.556274 425.904114,392.611206 421.930542,392.289612 
	C417.520447,391.932800 416.241669,393.557953 416.260345,397.954315 
	C416.417480,434.949219 416.408142,471.945251 416.267365,508.940308 
	C416.251282,513.167542 417.180878,515.166809 421.801361,514.658081 
	C425.093384,514.295593 428.459229,514.592651 431.792053,514.613525 
	C438.830139,514.657654 438.853973,514.662537 438.862030,507.468719 
	C438.875122,495.803772 438.822723,484.138672 438.872314,472.473938 
	C438.882141,470.159088 438.882874,467.382233 441.697144,466.722595 
	C444.169586,466.143158 444.824493,468.756775 445.852142,470.355286 
	C453.688904,482.545135 461.699707,494.631897 469.178070,507.039032 
	C472.180511,512.020325 475.323883,515.099731 481.597015,514.561096 
	C487.435791,514.059753 493.351471,514.454041 500.145813,514.454041 
	C498.662018,511.837585 497.865906,510.212250 496.873322,508.717407 
	C485.266083,491.236023 473.744781,473.695374 461.913239,456.366760 
	C459.205200,452.400543 459.263916,449.483795 462.026917,445.660522 
	C470.513977,433.916748 478.723083,421.970978 486.968964,410.054443 
	C490.701019,404.661041 494.264923,399.151306 498.678253,392.535370 
	C490.629028,392.535370 483.889526,391.665314 477.530304,392.845093 
	C473.376984,393.615631 472.111633,399.215271 469.499725,402.608368 
	C468.282806,404.189270 467.210632,405.881653 465.693146,408.137726 
z"/>
<path fill="#000000" opacity="1.000000" stroke="none" 
	d="
M838.981628,503.132568 
	C849.659119,466.829254 860.243286,430.920776 870.716248,394.979919 
	C871.678772,391.676422 873.397034,390.459778 876.782959,390.564270 
	C883.275635,390.764679 889.788574,390.847321 896.273254,390.547546 
	C899.762939,390.386261 901.356567,391.613129 902.309143,394.876343 
	C907.669067,413.239014 913.173218,431.559662 918.644043,449.889923 
	C924.543518,469.656738 930.481323,489.412140 936.357910,509.185760 
	C938.306946,515.744141 937.829773,516.321472 930.943298,516.342224 
	C925.611084,516.358276 920.277222,516.262695 914.947144,516.369995 
	C912.391968,516.421448 911.021667,515.522522 910.333740,512.944641 
	C908.791138,507.163666 906.921753,501.470795 905.283081,495.714233 
	C904.439575,492.751129 902.768799,491.395325 899.549011,491.324524 
	C890.896912,491.134308 882.271790,492.695282 873.599426,491.529297 
	C870.812866,491.154663 869.485779,493.168488 868.821716,495.675232 
	C867.373047,501.143890 865.706116,506.560760 864.450745,512.072205 
	C863.727600,515.247192 862.197144,516.505188 858.941345,516.414551 
	C852.614014,516.238464 846.278198,516.309143 839.946716,516.367981 
	C836.496338,516.400024 835.452820,514.899414 836.486206,511.664917 
	C837.346680,508.971771 838.072632,506.235657 838.981628,503.132568 
M902.416321,402.970490 
	C901.922607,401.381775 901.202881,399.824310 900.977844,398.198425 
	C900.318298,393.431976 897.678040,391.897003 893.025452,392.297577 
	C888.724976,392.667877 884.335388,392.690582 880.042175,392.275543 
	C875.197815,391.807251 873.312134,394.029022 872.094299,398.371643 
	C867.917175,413.266083 863.431091,428.073975 859.046997,442.910187 
	C852.447998,465.242157 845.899719,487.589569 839.163330,509.880035 
	C838.091248,513.427490 838.615417,514.840759 842.515503,514.687988 
	C847.341553,514.498962 852.191528,514.391663 857.007874,514.662720 
	C860.403259,514.853882 861.808777,513.319946 862.553101,510.340851 
	C863.883057,505.018280 865.452393,499.754883 866.745056,494.423889 
	C867.570007,491.021973 869.233093,489.500763 872.995483,489.603363 
	C882.320679,489.857697 891.660767,489.821411 900.988403,489.613312 
	C904.954163,489.524811 906.584412,491.242035 907.441345,494.901978 
	C908.728394,500.398804 910.545288,505.769531 912.017395,511.226135 
	C912.550232,513.200928 913.325867,514.609741 915.632080,514.575623 
	C922.057678,514.480591 928.507996,514.982727 935.652710,513.982056 
	C924.560486,476.956299 913.594421,440.351807 902.416321,402.970490 
z"/>
<path fill="#000000" opacity="1.000000" stroke="none" 
	d="
M703.273926,491.794281 
	C698.023926,491.723206 693.171265,491.900085 688.384033,491.422363 
	C684.259033,491.010742 682.260986,492.409821 681.391296,496.452362 
	C680.239624,501.805664 678.568909,507.045258 677.239929,512.363342 
	C676.529236,515.207031 675.036316,516.483643 671.963623,516.396484 
	C665.637939,516.217102 659.302917,516.293884 652.972961,516.368469 
	C649.519714,516.409241 648.682983,515.143127 649.652405,511.749359 
	C660.527222,473.680084 671.363770,435.599365 681.987610,397.459595 
	C683.418762,392.321564 685.587341,389.967834 691.235718,390.508453 
	C697.012817,391.061340 702.889038,390.725555 708.715088,390.552185 
	C711.272827,390.476044 712.559937,391.151581 713.340149,393.806030 
	C724.690002,432.422821 736.153137,471.006317 747.614685,509.590240 
	C748.182800,511.502930 749.070862,513.334656 748.136963,516.197327 
	C740.333374,516.197327 732.251892,516.289856 724.174683,516.144226 
	C721.549133,516.096863 721.454407,513.487976 720.912231,511.685913 
	C719.476501,506.913910 717.938416,502.139679 717.007690,497.258331 
	C716.119629,492.600677 713.967468,490.579163 709.174561,491.494049 
	C707.397583,491.833191 705.527405,491.684387 703.273926,491.794281 
M674.808472,512.175415 
	C676.517578,505.929565 678.207153,499.678284 679.946594,493.440918 
	C680.540710,491.310394 681.188293,489.517761 684.191162,489.580048 
	C693.843933,489.780365 703.503784,489.744812 713.159363,489.651276 
	C715.956604,489.624176 717.505371,490.723633 718.184082,493.377655 
	C719.541748,498.686310 721.132812,503.941040 722.312866,509.287476 
	C723.186096,513.243652 725.351074,514.856018 729.318237,514.654053 
	C732.971985,514.468140 736.640930,514.527893 740.302429,514.562317 
	C746.136902,514.617188 746.621094,514.016235 744.911682,508.193359 
	C740.839966,494.323059 736.760193,480.454956 732.633179,466.600983 
	C725.706177,443.347290 718.678223,420.123383 711.855835,396.839172 
	C710.820984,393.307251 709.068787,392.061523 705.463440,392.293182 
	C700.986816,392.580811 696.447876,392.673340 691.989624,392.264038 
	C687.190308,391.823456 685.319458,393.918457 684.095337,398.315277 
	C676.295959,426.328125 668.231140,454.266907 660.304077,482.244385 
	C657.327332,492.750244 654.485168,503.294189 651.398743,514.483948 
	C656.605408,514.483948 661.069336,514.777954 665.471252,514.382080 
	C668.477966,514.111572 671.898254,515.647034 674.808472,512.175415 
z"/>
<path fill="#000000" opacity="1.000000" stroke="none" 
	d="
M443.256897,565.670776 
	C443.490967,567.905579 444.184753,569.562988 445.416351,571.546326 
	C447.952240,566.141602 447.863892,560.432251 449.274536,555.123352 
	C450.649780,549.947693 454.042572,550.549927 457.344055,551.197693 
	C461.584747,552.029846 459.582428,555.121033 458.976685,557.572998 
	C456.385986,568.059998 453.611572,578.507263 451.313049,589.058044 
	C450.362305,593.422180 448.188995,594.540955 444.037872,594.405273 
	C439.951721,594.271667 439.153412,591.949829 438.584290,588.714844 
	C437.873657,584.675293 436.834442,580.693542 435.730927,575.766357 
	C432.876495,580.972412 432.791077,585.903198 431.615906,590.490295 
	C430.814667,593.617798 429.229858,594.484985 426.326385,594.351746 
	C423.491852,594.221680 420.606354,594.717773 419.691010,590.803833 
	C416.891205,578.831848 413.964172,566.889526 411.052063,554.944092 
	C410.516693,552.747925 411.131714,551.137390 413.438416,550.959229 
	C416.503693,550.722473 420.089813,549.953552 421.193878,554.277649 
	C422.056305,557.655273 422.703857,561.091125 423.350067,564.519287 
	C423.725555,566.511230 424.315613,568.342712 426.060638,570.177185 
	C428.527802,567.167603 428.293488,563.556519 429.279755,560.402588 
	C429.872772,558.506042 430.255280,556.536255 430.624664,554.579102 
	C431.100952,552.055725 432.499695,550.880798 435.112488,550.896545 
	C437.867249,550.913147 440.106659,551.558044 440.816772,554.578674 
	C441.653625,558.138245 442.412537,561.716187 443.256897,565.670776 
M421.406067,588.813843 
	C421.905914,590.989136 422.858398,592.339417 425.509369,592.062073 
	C428.076904,591.793396 429.285797,590.704651 429.788116,588.150330 
	C431.231750,580.809570 432.897125,573.512451 434.475311,566.198181 
	C434.836548,566.171936 435.197784,566.145691 435.559021,566.119385 
	C437.649292,574.537354 439.739563,582.955261 441.865143,591.515381 
	C444.958252,591.695923 447.949493,593.117859 449.006439,588.451477 
	C451.596741,577.015564 454.500824,565.650696 457.334045,554.029785 
	C454.152710,552.925903 451.861053,552.728882 451.127289,556.899414 
	C450.035126,563.106995 448.715424,569.279480 447.292389,575.420532 
	C446.898499,577.120483 447.039856,579.445984 444.253662,580.226868 
	C442.500977,572.770203 440.792694,565.533386 439.102478,558.292480 
	C438.614746,556.202942 438.546814,553.884277 435.386932,554.007080 
	C432.592590,554.115723 432.420959,556.126770 431.995789,558.102722 
	C430.774811,563.777405 429.575378,569.458130 428.229279,575.103577 
	C427.738159,577.163269 427.833527,579.569824 425.287842,581.632324 
	C423.229065,573.027161 421.266266,565.024231 419.416351,556.995361 
	C418.644501,553.645386 417.034210,552.422119 413.288452,554.439941 
	C415.946716,565.598389 418.622314,576.829407 421.406067,588.813843 
z"/>
<path fill="#000000" opacity="1.000000" stroke="none" 
	d="
M790.005859,400.129761 
	C790.024841,429.435730 790.021729,458.259583 790.015991,487.083405 
	C790.014709,493.660828 790.010498,493.669861 796.691772,493.676910 
	C805.522522,493.686249 814.355286,493.789093 823.182983,493.625488 
	C826.653687,493.561157 828.012268,494.924896 827.939758,498.294891 
	C827.843079,502.790802 827.896301,507.291382 827.962402,511.788849 
	C828.007507,514.855408 826.767151,516.379211 823.524353,516.369873 
	C804.696777,516.315491 785.868958,516.340576 767.041260,516.349182 
	C764.807190,516.350220 763.320679,516.000183 763.332092,513.058838 
	C763.486633,473.246124 763.527771,433.432892 763.612366,393.619843 
	C763.614075,392.820801 763.800537,392.022125 763.965515,390.707184 
	C771.715576,390.707184 779.323303,390.703369 786.931091,390.709808 
	C788.892395,390.711456 789.460388,392.078400 789.616272,393.670135 
	C789.810669,395.655579 789.866943,397.654510 790.005859,400.129761 
M765.351013,412.500732 
	C765.350830,444.657532 765.421326,476.814697 765.265869,508.970764 
	C765.245178,513.259399 766.322021,514.791687 770.848022,514.696899 
	C784.337769,514.414368 797.839539,514.755859 811.332581,514.568115 
	C828.436096,514.330200 825.300903,517.763733 825.706665,499.634064 
	C825.779907,496.359680 824.593811,495.255524 821.332275,495.330170 
	C813.339417,495.513092 805.336548,495.255524 797.343262,495.427917 
	C785.627258,495.680573 787.721252,495.439453 787.690918,485.902679 
	C787.598328,456.745270 787.546387,427.586639 787.753967,398.430450 
	C787.789062,393.490021 786.135376,391.917114 781.427917,392.314178 
	C777.622681,392.635071 773.766357,392.473663 769.937866,392.358124 
	C766.619995,392.258057 765.091003,393.412323 765.287292,397.009338 
	C765.550110,401.826843 765.351807,406.669495 765.351013,412.500732 
z"/>
<path fill="#000000" opacity="1.000000" stroke="none" 
	d="
M824.891846,552.629272 
	C825.166992,565.013184 825.299072,576.985901 825.295349,588.958557 
	C825.294739,590.906921 826.233521,593.772705 822.992737,594.120911 
	C819.969116,594.445740 816.530762,595.308594 814.683228,591.510864 
	C812.429077,586.877136 810.153992,582.253601 807.884033,577.627563 
	C807.032654,575.892395 806.170227,574.162720 804.330261,572.587097 
	C804.330261,578.317200 804.243652,584.049072 804.365479,589.776611 
	C804.429810,592.799622 803.589783,594.371033 800.180420,594.381470 
	C796.903625,594.391541 795.070312,593.404236 795.117065,589.931702 
	C795.269043,578.643250 795.381287,567.354065 795.599609,556.066956 
	C795.638611,554.050171 795.009583,551.238464 798.208557,551.040771 
	C801.386475,550.844482 805.078491,549.808228 807.032654,553.728943 
	C809.182861,558.043091 811.202271,562.422241 813.315735,566.755005 
	C813.658325,567.457275 814.192932,568.065918 815.144409,569.457214 
	C816.540283,565.206787 815.933838,561.626343 815.927246,558.120605 
	C815.913574,550.893616 817.827454,549.584900 824.891846,552.629272 
M811.557678,567.830505 
	C809.550598,563.809753 807.539185,559.791138 805.538086,555.767456 
	C804.365234,553.409241 802.289917,553.208313 800.010742,553.363403 
	C798.453735,553.469360 797.429382,554.121826 797.424988,555.762878 
	C797.395020,566.921143 797.389221,578.079407 797.402039,589.237732 
	C797.403870,590.808228 798.209656,591.703064 799.864868,591.728882 
	C801.755249,591.758362 802.584473,590.762756 802.613159,588.965576 
	C802.634399,587.633423 802.646729,586.301025 802.647461,584.968689 
	C802.650879,578.562195 802.648987,572.155701 802.648987,564.781677 
	C806.384827,567.953308 807.695190,571.324402 809.237000,574.540405 
	C811.610229,579.490601 814.005310,584.430359 816.356995,589.390808 
	C817.377808,591.544128 819.103394,592.100464 821.301208,591.810303 
	C822.921997,591.596313 823.599182,590.609924 823.603516,589.082703 
	C823.634949,578.090454 823.661926,567.098145 823.668091,556.105896 
	C823.669067,554.299255 822.778198,553.352112 820.878174,553.414490 
	C818.893250,553.479736 818.357971,554.683105 818.356262,556.392090 
	C818.350647,562.054932 818.399658,567.718994 818.289001,573.379883 
	C818.259705,574.876953 819.037537,576.720947 817.053467,577.931091 
	C813.764709,575.608276 814.107422,571.320618 811.557678,567.830505 
z"/>
<path fill="#000000" opacity="1.000000" stroke="none" 
	d="
M579.029541,564.971985 
	C581.477112,567.101074 584.158386,567.939392 586.830383,568.904663 
	C594.709595,571.751343 598.174072,577.784119 596.397583,585.193970 
	C594.709595,592.234314 588.318665,596.093323 580.234985,595.151611 
	C574.785400,594.516785 570.152649,592.695007 567.899048,587.269348 
	C566.940613,584.961853 565.987976,582.249146 569.278381,580.885864 
	C571.890015,579.803772 574.483948,578.815979 576.531006,582.398865 
	C578.094788,585.135925 580.423157,587.714172 584.264526,585.584229 
	C587.301392,583.900330 587.454773,581.164612 584.411316,579.463989 
	C581.664062,577.928955 578.591492,576.989197 575.755676,575.596863 
	C569.496704,572.523926 566.723450,567.259521 567.900879,560.993713 
	C568.994202,555.175293 573.356812,551.412903 579.818909,550.715454 
	C587.218506,549.916809 593.110229,552.931274 595.444885,558.810242 
	C596.237793,560.807068 597.359802,563.201660 594.284729,564.195923 
	C591.746948,565.016541 588.806458,567.751343 586.658447,563.309875 
	C585.537537,560.992188 583.803101,558.992310 580.782104,559.962646 
	C578.481812,560.701538 577.724670,562.388123 579.029541,564.971985 
M588.110657,579.615295 
	C590.367981,583.503418 588.637451,585.982178 585.088806,587.559875 
	C580.960205,589.395386 577.573914,587.964661 575.037659,584.523499 
	C573.824280,582.877197 572.554321,581.424377 570.603333,582.787109 
	C568.582947,584.198242 569.837952,586.155029 570.722473,587.686890 
	C574.606079,594.412415 588.090454,594.952087 592.485840,588.612976 
	C597.006958,582.092468 594.921814,575.307617 587.106689,571.382751 
	C584.142395,569.894104 580.991272,568.761902 578.092224,567.164185 
	C575.998779,566.010498 575.289246,563.917053 575.969666,561.549500 
	C576.639221,559.219849 578.230286,557.986145 580.666138,557.737549 
	C583.917297,557.405701 586.566406,558.225830 588.344971,561.193054 
	C589.445190,563.028503 591.077881,562.994934 592.624634,561.878113 
	C594.348145,560.633850 593.333862,559.147095 592.559387,557.915894 
	C590.042419,553.914551 586.084900,553.142578 581.724121,553.129639 
	C575.437683,553.110962 571.694519,555.568237 570.463562,560.759705 
	C569.047852,566.730408 571.154236,570.893372 576.908875,573.814575 
	C580.451416,575.612671 584.558960,576.240295 588.110657,579.615295 
z"/>
<path fill="#000000" opacity="1.000000" stroke="none" 
	d="
M750.388306,571.559814 
	C755.512695,576.398682 756.690430,581.340027 754.465576,587.090820 
	C752.127991,593.133240 747.118042,595.038513 741.339417,595.175659 
	C735.226562,595.320862 729.698730,593.597534 726.743774,587.580994 
	C725.598938,585.250061 724.322205,582.329529 727.847534,580.775513 
	C730.710754,579.513245 733.907837,578.018860 735.562622,582.692871 
	C736.206665,584.512085 737.893066,585.519714 739.798950,585.812317 
	C741.698547,586.104065 743.600220,585.860596 744.473145,583.850464 
	C745.358459,581.811523 744.321594,580.191406 742.578735,579.257874 
	C740.392883,578.087158 738.062622,577.174316 735.759521,576.236450 
	C729.573669,573.717346 726.612732,569.732300 726.684265,563.920776 
	C726.763000,557.524231 729.310913,553.679321 734.882996,551.548401 
	C740.548645,549.381714 747.932983,550.869934 751.555725,554.908569 
	C755.848450,559.694153 755.053467,563.760498 749.615356,565.325684 
	C747.766602,565.857788 746.399475,565.794189 745.404053,563.952576 
	C744.933105,563.081299 744.333252,562.256592 743.674500,561.515076 
	C742.538391,560.236328 741.237122,559.130554 739.352112,559.870483 
	C738.210938,560.318542 737.440308,561.197693 737.281433,562.475342 
	C737.036255,564.445923 738.217834,565.669373 739.740112,566.442932 
	C743.139038,568.170227 746.623718,569.728882 750.388306,571.559814 
M738.277527,568.222046 
	C735.577698,566.904907 734.179443,564.867737 734.870850,561.787537 
	C735.347412,559.664001 736.634155,558.268616 738.838867,557.812317 
	C743.592102,556.828430 746.184021,559.678772 748.151672,563.399719 
	C750.019592,562.730835 751.889526,562.386719 751.581665,560.141113 
	C751.246338,557.695557 749.683411,555.928894 747.651123,554.636780 
	C742.283386,551.224060 732.425598,553.288818 729.873901,558.322144 
	C726.793030,564.399292 729.881287,571.487610 736.911499,574.452393 
	C739.355835,575.483154 741.845154,576.414124 744.251526,577.525635 
	C746.664917,578.640503 747.576172,580.703125 747.240601,583.268188 
	C746.863525,586.151062 744.866577,587.642273 742.254700,588.121704 
	C738.858765,588.745056 735.695679,587.656677 734.101868,584.622192 
	C732.385925,581.354980 730.611694,581.799561 728.250549,583.353638 
	C729.264038,590.389832 733.483826,593.120605 742.548340,592.729492 
	C748.323914,592.480286 751.584961,589.756836 753.018799,583.985168 
	C754.241272,579.064392 752.527283,575.203369 747.570984,572.482727 
	C744.815430,570.970032 741.842285,569.853943 738.277527,568.222046 
z"/>
<path fill="#000000" opacity="1.000000" stroke="none" 
	d="
M870.121521,560.332825 
	C870.302063,558.380188 870.597595,556.889343 870.579163,555.402466 
	C870.540283,552.250671 871.930847,550.938171 875.122864,550.992676 
	C880.774475,551.089172 886.430969,550.963867 892.084412,550.869751 
	C895.587158,550.811401 897.221863,552.276794 897.199402,555.952271 
	C897.176453,559.696777 895.094299,560.366455 892.044067,560.278076 
	C889.551514,560.205750 887.054016,560.320862 884.559753,560.284302 
	C882.018799,560.247131 880.971985,561.474976 881.034729,563.968811 
	C881.095093,566.368469 882.010071,567.757202 884.598267,567.671143 
	C886.259949,567.615906 887.930725,567.728699 889.585876,567.608215 
	C892.787415,567.375183 894.077454,568.823547 894.116455,571.985229 
	C894.156128,575.204163 892.791382,576.564819 889.620117,576.373047 
	C887.963623,576.272949 886.292908,576.431580 884.631836,576.376709 
	C881.709900,576.280273 880.948059,577.972229 880.961975,580.504517 
	C880.975342,582.927063 881.452820,584.841492 884.456360,584.808899 
	C887.117188,584.780090 889.782654,584.897400 892.438599,584.779907 
	C895.822998,584.630188 897.183289,586.107971 897.254089,589.504700 
	C897.325012,592.910583 896.076965,594.387817 892.630920,594.324890 
	C886.644653,594.215515 880.652405,594.196838 874.667786,594.346130 
	C871.610229,594.422424 870.718262,593.108459 870.562866,590.216431 
	C870.035950,580.411682 869.835754,570.609863 870.121521,560.332825 
M883.695496,557.874878 
	C886.189575,557.831360 888.684387,557.810303 891.177551,557.735962 
	C892.688049,557.690857 894.399902,557.700989 894.504883,555.621887 
	C894.612122,553.497925 892.956970,553.345215 891.403442,553.338623 
	C886.248474,553.316650 881.093079,553.371643 875.938416,553.328430 
	C873.024475,553.304016 872.303101,554.958862 872.321594,557.498169 
	C872.372559,564.482422 872.238953,571.468994 872.368713,578.451172 
	C872.450745,582.868103 871.774902,587.342896 872.838013,591.748169 
	C879.248230,591.748169 885.388611,591.763855 891.528870,591.737488 
	C893.122559,591.730652 894.648254,591.432678 894.519531,589.320923 
	C894.409973,587.523499 893.011902,587.347168 891.626221,587.323181 
	C889.464905,587.285767 887.276367,587.080383 885.146301,587.336609 
	C880.177612,587.934204 878.410706,586.062500 878.506042,580.943726 
	C878.592712,576.292847 879.813049,574.013611 884.730652,574.645508 
	C886.037598,574.813416 887.388123,574.661926 888.717896,574.627319 
	C890.137329,574.590332 891.501831,574.365356 891.380493,572.490906 
	C891.272583,570.825134 890.582397,569.614075 888.606384,569.723083 
	C886.947998,569.814514 885.282166,569.955688 883.627380,569.887573 
	C880.973389,569.778259 878.441467,569.255188 878.737488,565.742432 
	C879.000183,562.625793 876.957886,558.205627 883.695496,557.874878 
z"/>
<path fill="#000000" opacity="1.000000" stroke="none" 
	d="
M782.692139,567.823547 
	C786.170471,569.388550 785.466492,572.137207 784.963989,574.437561 
	C784.374146,577.138184 781.778931,576.074524 779.939758,576.363892 
	C776.771484,576.862488 771.967285,574.564758 772.306335,581.026306 
	C772.433167,583.443420 773.102478,584.825562 775.741333,584.752075 
	C778.066528,584.687256 780.397522,584.816345 782.721863,584.738037 
	C786.070984,584.625122 788.381470,585.080994 788.439636,589.483948 
	C788.496460,593.780884 786.542725,594.454895 782.997803,594.346863 
	C777.516968,594.179688 772.026428,594.247864 766.541626,594.327332 
	C763.815674,594.366882 762.649658,593.238037 762.662964,590.478577 
	C762.719849,578.682922 762.728699,566.886414 762.643188,555.091064 
	C762.621338,552.074707 763.995728,550.878845 766.836365,550.892700 
	C772.654175,550.921143 778.472473,550.959167 784.289917,550.914368 
	C787.681335,550.888306 788.351013,552.778320 788.356812,555.736267 
	C788.362610,558.751099 787.644958,560.520996 784.199097,560.306152 
	C781.383545,560.130554 778.548340,560.297424 775.723511,560.235779 
	C773.075623,560.177917 772.336609,561.601318 772.310608,564.004578 
	C772.283813,566.477905 773.136841,567.764587 775.758118,567.685120 
	C777.915955,567.619690 780.078796,567.722290 782.692139,567.823547 
M775.503479,574.661499 
	C776.833679,574.651428 778.164246,574.656555 779.494019,574.627258 
	C781.048645,574.593018 782.674561,574.512634 782.593201,572.360962 
	C782.517761,570.363281 780.962341,570.076904 779.396545,569.997803 
	C778.236084,569.939209 777.067749,569.940491 775.907104,569.999390 
	C772.007507,570.197266 770.258179,568.834839 770.554749,564.488892 
	C770.999695,557.968872 770.773560,557.876465 777.362793,557.812378 
	C779.191772,557.794617 781.022827,557.847961 782.849487,557.778320 
	C784.468933,557.716553 786.536743,557.965759 786.425049,555.483093 
	C786.335510,553.493958 784.560608,553.377197 783.048523,553.363037 
	C778.060791,553.316467 773.072327,553.339966 768.084167,553.338501 
	C765.722229,553.337769 764.338867,554.271057 764.348083,556.878967 
	C764.385071,567.354431 764.373535,577.830200 764.345154,588.305664 
	C764.339294,590.455017 765.028503,591.877197 767.436462,591.858215 
	C772.923096,591.814880 778.409790,591.778015 783.896179,591.711304 
	C785.376831,591.693237 786.570190,591.177368 786.510071,589.429565 
	C786.449097,587.656799 785.136719,587.340454 783.711853,587.317566 
	C781.051941,587.274780 778.391235,587.279846 775.731079,587.249084 
	C773.178650,587.219543 770.182312,587.332397 770.786682,583.570190 
	C771.297974,580.387451 767.984802,575.315125 775.503479,574.661499 
z"/>
<path fill="#000000" opacity="1.000000" stroke="none" 
	d="
M473.557800,593.490234 
	C464.896393,595.054871 464.616302,594.839783 464.609497,586.682678 
	C464.600922,576.365540 464.684265,566.048096 464.610687,555.731567 
	C464.587860,552.540039 465.352448,550.678833 469.098999,550.908264 
	C472.269287,551.102417 474.737061,551.450989 474.450287,555.538452 
	C474.252991,558.350403 474.404144,561.185181 474.344818,564.008667 
	C474.265778,567.770081 476.830902,567.699585 479.463501,567.655029 
	C481.993134,567.612122 484.713867,567.988098 484.652557,564.119507 
	C484.607758,561.291016 484.808838,558.452759 484.647308,555.633423 
	C484.441742,552.046326 486.301025,550.943420 489.499756,550.984314 
	C492.613556,551.024109 494.420502,551.957458 494.379272,555.621277 
	C494.248138,567.269775 494.308594,578.922241 494.461639,590.570923 
	C494.500122,593.499634 493.267365,594.512207 490.602875,594.284180 
	C488.170441,594.075989 484.833649,595.375427 484.744476,591.009399 
	C484.676514,587.681824 484.477905,584.337341 484.719269,581.028198 
	C485.000397,577.173340 483.294769,576.204224 479.728271,576.242004 
	C476.115509,576.280273 474.090607,577.030762 474.249817,581.231140 
	C474.399811,585.190430 474.791016,589.208313 473.557800,593.490234 
M472.674622,586.232178 
	C472.949432,573.307861 470.520844,574.908203 482.816132,574.606201 
	C485.418854,574.542358 486.423920,575.611023 486.372681,578.120056 
	C486.304840,581.443115 486.303497,584.771057 486.408539,588.092590 
	C486.461578,589.770020 485.775452,592.082336 488.727020,592.107117 
	C491.267914,592.128418 492.714905,591.132446 492.690674,588.251160 
	C492.602631,577.779236 492.642822,567.306030 492.671783,556.833496 
	C492.677704,554.690552 492.071228,553.297607 489.591614,553.336121 
	C487.194366,553.373413 486.413849,554.737000 486.389404,556.855713 
	C486.354889,559.847412 486.317322,562.839050 486.294739,565.830811 
	C486.280853,567.669800 485.793640,568.863159 483.616211,569.270508 
	C474.613251,570.954834 472.677826,569.485229 472.679993,560.580811 
	C472.680237,559.583374 472.692169,558.585754 472.674103,557.588623 
	C472.637848,555.588440 472.917542,553.340759 469.844696,553.424438 
	C466.798187,553.507446 467.135925,555.848633 467.125946,557.774536 
	C467.075043,567.581604 467.063416,577.389282 467.122620,587.196228 
	C467.133972,589.078979 466.679352,591.555542 469.689148,591.693787 
	C473.063049,591.848755 472.580017,589.253540 472.674622,586.232178 
z"/>
<path fill="#000000" opacity="1.000000" stroke="none" 
	d="
M903.619751,560.056519 
	C903.628113,558.069275 903.730042,556.568970 903.648132,555.078796 
	C903.482788,552.073975 904.957520,550.840454 907.832275,550.902344 
	C912.142029,550.995300 916.451172,551.166870 920.752319,551.335999 
	C930.878967,551.734375 936.395569,565.324463 929.260742,573.216797 
	C926.402344,576.378662 926.746704,578.753967 928.369080,581.975037 
	C930.197510,585.605469 932.742065,589.005066 932.964050,593.279907 
	C925.163391,595.853149 922.980347,594.953674 920.032043,588.330261 
	C918.714722,585.370789 918.082153,582.013794 915.514832,579.468140 
	C912.507812,581.304993 913.464478,584.053284 913.405334,586.323486 
	C913.178284,595.032410 912.998535,595.239441 903.630127,593.683167 
	C903.630127,582.717651 903.630127,571.632874 903.619751,560.056519 
M928.452209,570.686035 
	C933.421814,560.912659 925.907593,551.826477 917.111328,553.242004 
	C914.514343,553.659912 911.793945,553.412292 909.135437,553.318481 
	C906.358398,553.220520 905.298584,554.432251 905.321716,557.194458 
	C905.407959,567.510254 905.366272,577.827148 905.356445,588.143677 
	C905.354553,590.154297 905.671143,591.786255 908.235229,591.878113 
	C910.918823,591.974243 911.701294,590.566711 911.656738,588.162354 
	C911.589539,584.534241 911.639221,580.903931 911.639221,577.402893 
	C915.679504,575.599670 917.771545,576.976013 919.137146,580.286865 
	C920.340881,583.205261 921.841736,586.005737 922.960571,588.953491 
	C924.353638,592.624146 926.564941,593.314819 930.255676,591.340393 
	C928.900757,588.330627 927.997437,585.240112 926.266907,582.716980 
	C923.139648,578.157288 923.524414,574.524109 928.452209,570.686035 
z"/>
<path fill="#000000" opacity="1.000000" stroke="none" 
	d="
M541.422058,560.463745 
	C538.935791,560.050049 536.450562,561.181946 534.844604,559.348206 
	C533.321106,557.608643 533.594238,555.235657 534.169250,553.146729 
	C534.698364,551.224304 536.530212,550.949890 538.227905,550.934387 
	C545.044373,550.872009 551.861572,550.851257 558.678406,550.867859 
	C561.864197,550.875610 564.100098,551.841492 564.179016,555.699097 
	C564.259033,559.608337 562.248169,560.683044 558.884583,560.332092 
	C555.023254,559.929321 554.048584,561.877319 554.126770,565.375610 
	C554.297424,573.020630 554.068542,580.674927 554.257812,588.319092 
	C554.356812,592.315674 553.464722,594.449402 548.784851,594.453308 
	C544.272461,594.457031 543.589783,592.376831 543.670288,588.635437 
	C543.834717,580.990479 543.748169,573.338806 543.668457,565.690918 
	C543.648987,563.823181 544.395203,561.549011 541.422058,560.463745 
M551.710632,587.143127 
	C551.704163,579.998779 551.877991,572.848083 551.626770,565.712341 
	C551.464355,561.097961 551.952393,557.723328 557.883301,558.590332 
	C559.935608,558.890381 561.614563,557.836121 561.461365,555.506104 
	C561.308594,553.181335 559.300415,553.360229 557.652222,553.348816 
	C552.335693,553.311951 547.018433,553.277405 541.702332,553.332397 
	C539.480957,553.355408 536.487061,552.705444 536.518555,556.254761 
	C536.549927,559.777100 539.612183,558.734314 541.441528,558.532837 
	C545.393738,558.097412 546.316284,559.891357 546.259521,563.405457 
	C546.127930,571.544250 546.233276,579.687195 546.269348,587.828247 
	C546.277527,589.674561 546.180664,591.678162 548.879944,591.747498 
	C551.515381,591.815186 551.703491,589.987183 551.710632,587.143127 
z"/>
<path fill="#000000" opacity="1.000000" stroke="none" 
	d="
M623.828491,554.308350 
	C627.643494,567.558594 631.285278,580.432434 634.924805,593.298462 
	C626.983215,595.543945 625.300110,594.936951 623.195862,588.566467 
	C622.061646,585.132812 619.676331,585.213440 616.921265,585.174988 
	C614.080933,585.135254 611.683044,585.288757 610.783691,588.737183 
	C610.243347,590.808960 610.574585,593.792725 607.380127,594.140137 
	C605.115723,594.386353 602.445740,595.190491 600.651001,593.540527 
	C598.723450,591.768372 600.486511,589.497681 601.085754,587.527466 
	C604.319153,576.896057 607.591797,566.276306 610.914856,555.672485 
	C611.585083,553.533630 611.878113,550.858459 615.083252,550.932556 
	C618.248352,551.005615 621.952881,549.641724 623.828491,554.308350 
M607.401489,574.719727 
	C605.949219,580.414673 603.333252,585.802612 602.482666,591.763672 
	C606.508911,592.686829 608.437805,591.560242 608.992432,587.610291 
	C609.559082,583.574646 612.432495,582.514343 616.326782,582.712952 
	C620.258545,582.913452 624.422180,582.460938 625.137390,587.699890 
	C625.769287,592.328308 628.238403,592.452698 632.195984,591.186951 
	C628.756897,579.351929 625.363647,567.750488 622.027588,556.132507 
	C621.328308,553.697205 619.645264,553.304504 617.440735,553.318726 
	C615.191406,553.333252 613.591858,553.954651 612.909424,556.299255 
	C611.193481,562.194580 609.411316,568.070557 607.401489,574.719727 
z"/>
<path fill="#000000" opacity="1.000000" stroke="none" 
	d="
M511.207306,554.364502 
	C512.804932,549.689514 516.371521,551.050232 519.374878,551.014771 
	C522.254150,550.980835 523.371765,552.983276 524.102356,555.353271 
	C527.678345,566.954346 531.242371,578.559082 534.845032,590.151855 
	C535.379089,591.870300 535.848816,593.905945 533.505920,594.042664 
	C530.594788,594.212646 527.134155,595.886230 524.859253,592.493958 
	C524.233521,591.560852 523.920776,590.338623 523.733887,589.204651 
	C523.070374,585.178833 520.195068,585.038208 516.998840,585.003662 
	C513.794556,584.969055 511.780853,585.776855 510.872772,589.330872 
	C509.420959,595.012878 508.030548,595.415649 500.223328,593.398743 
	C502.842712,580.250000 507.602081,567.670044 511.207306,554.364502 
M516.721619,553.358154 
	C513.827393,553.167664 513.153809,555.323669 512.508240,557.424927 
	C511.189941,561.715454 509.898621,566.015076 508.659058,570.328979 
	C506.608490,577.465271 504.607605,584.615784 502.487976,592.105896 
	C506.098480,592.364380 508.755188,592.142212 509.024200,588.203003 
	C509.474854,581.604553 514.353699,582.946350 518.538391,582.653992 
	C522.753967,582.359497 525.288818,583.771912 525.767578,588.179504 
	C526.257324,592.687317 528.631653,593.548950 532.887695,591.572693 
	C529.175293,579.525146 525.508545,567.649231 521.860840,555.767517 
	C521.172485,553.525269 519.436829,553.278137 516.721619,553.358154 
z"/>
<path fill="#000000" opacity="1.000000" stroke="none" 
	d="
M641.571899,551.335571 
	C647.132446,550.850464 652.254578,550.665649 657.379150,551.568298 
	C663.984558,552.731689 667.729187,557.062683 668.202209,564.397461 
	C668.625977,570.967468 665.088074,576.453369 659.224487,578.306519 
	C658.592224,578.506409 657.951904,578.684692 657.307678,578.841614 
	C649.537720,580.734314 649.432922,580.735168 649.625610,589.129944 
	C649.702515,592.477051 649.158325,594.468689 645.117493,594.411926 
	C641.506226,594.361206 639.571777,593.601135 639.641541,589.445740 
	C639.828430,578.322021 639.692200,567.193054 639.708862,556.066162 
	C639.711365,554.421143 639.585876,552.692810 641.571899,551.335571 
M642.298706,590.318970 
	C642.734558,592.596802 644.415771,592.033508 645.829895,591.760986 
	C647.514526,591.436401 647.536072,590.011536 647.660156,588.640564 
	C647.982361,585.079590 646.878540,581.384277 648.350525,578.114502 
	C651.280579,577.624573 653.909912,577.263977 656.505127,576.735657 
	C663.449219,575.321899 666.370483,570.939270 665.648254,563.154663 
	C665.093445,557.175354 660.902405,553.431824 654.593262,553.315796 
	C652.428528,553.275940 650.241760,553.497131 648.101379,553.264587 
	C643.653931,552.781250 641.883728,554.262329 642.061768,559.060303 
	C642.438171,569.208435 642.224609,579.378479 642.298706,590.318970 
z"/>
<path fill="#000000" opacity="1.000000" stroke="none" 
	d="
M858.714844,555.255615 
	C865.036682,564.284790 865.658325,573.755737 862.307190,583.560791 
	C859.891235,590.629761 854.665039,594.125000 847.140198,594.313843 
	C834.691284,594.626343 834.737549,594.625732 834.596985,582.429077 
	C834.495300,573.607178 834.302246,564.785400 834.043274,555.966675 
	C833.940613,552.468689 835.142944,550.713257 838.932922,550.854675 
	C845.698547,551.107361 852.665771,550.177856 858.714844,555.255615 
M836.350281,573.499390 
	C836.350281,579.584412 836.350281,585.669434 836.350281,591.648804 
	C850.107544,592.965820 856.384766,591.563293 859.066223,585.386963 
	C862.985168,576.360291 863.962952,566.804871 857.976013,558.256226 
	C852.563354,550.527588 844.270569,553.761230 836.350525,553.628601 
	C836.350525,560.247375 836.350525,566.373840 836.350281,573.499390 
z"/>
<path fill="#000000" opacity="1.000000" stroke="none" 
	d="
M683.505188,581.541687 
	C683.554138,583.930908 683.672607,585.921021 683.796143,587.910950 
	C684.163330,593.823059 681.584045,595.807556 675.872986,594.212524 
	C673.947144,593.674683 673.699158,592.384338 673.696533,590.833984 
	C673.676208,578.846863 673.708435,566.859619 673.653198,554.872742 
	C673.640320,552.075073 675.011475,551.059692 677.625122,550.968384 
	C682.459167,550.799438 687.275452,550.747009 692.050903,551.689392 
	C697.888184,552.841248 700.968628,556.348022 701.352966,562.310303 
	C702.138489,574.495850 699.399231,577.821411 687.295471,579.297852 
	C685.807007,579.479370 684.227173,579.333557 683.505188,581.541687 
M675.350647,566.515991 
	C675.350647,574.916077 675.350647,583.316101 675.350647,591.538696 
	C680.294800,592.719177 682.147095,591.189148 681.663086,586.894104 
	C681.533691,585.746094 681.819153,584.540527 681.620911,583.412903 
	C680.717407,578.272766 683.193909,576.495789 687.956787,576.727600 
	C691.550903,576.902588 694.984558,576.425354 697.333679,573.247009 
	C700.514404,568.943542 700.441223,564.175964 698.587158,559.520752 
	C696.794922,555.020874 693.024658,553.334961 688.227173,553.290344 
	C675.347656,553.170715 675.348328,553.099731 675.350647,566.515991 
z"/>
<path fill="#000000" opacity="1.000000" stroke="none" 
	d="
M256.330078,506.081207 
	C256.560760,511.249329 255.732071,515.802063 254.644760,520.349548 
	C252.188965,530.620361 246.394318,537.964539 236.395538,541.810913 
	C234.777359,542.433350 232.453873,542.597595 232.416809,544.971252 
	C232.375275,547.630005 234.627655,548.536377 236.673401,549.236023 
	C243.152863,551.451843 249.048111,548.982910 255.011749,546.858765 
	C257.112885,546.110474 259.444244,543.069397 261.559906,546.065796 
	C263.616882,548.979126 261.819550,551.790955 259.680206,554.111389 
	C254.601196,559.620361 248.025879,562.246826 240.871429,563.650269 
	C225.996307,566.568359 211.438690,566.130066 197.599396,559.156677 
	C194.168304,557.427795 191.051147,555.192993 188.508301,552.247681 
	C186.680298,550.130432 186.851501,547.878784 188.503418,545.900208 
	C190.155106,543.921875 191.909271,544.921875 193.798309,546.024658 
	C199.594452,549.408264 205.975266,550.343872 212.566620,549.690125 
	C216.500381,549.299988 219.428604,547.461731 220.247360,542.990845 
	C219.393250,542.528442 218.723419,542.043701 217.975693,541.779053 
	C203.218109,536.556030 198.360519,524.803589 197.712601,510.545654 
	C197.302414,501.519135 197.963943,492.576477 202.800720,484.490082 
	C208.797714,474.463959 217.668518,469.245056 229.259140,469.869690 
	C240.457047,470.473175 250.455536,479.324921 253.753464,490.438538 
	C255.221680,495.386230 256.239990,500.421448 256.330078,506.081207 
M190.540741,547.871826 
	C189.042297,549.761719 190.426788,550.934937 191.646362,552.077454 
	C193.591156,553.899414 195.601578,555.632629 198.015579,556.854858 
	C215.188339,565.549622 232.696259,564.630920 250.207108,558.295532 
	C254.809860,556.630249 258.437317,553.216125 260.815826,547.137207 
	C256.236511,548.807007 252.934479,550.191956 249.523651,551.213623 
	C243.978348,552.874695 238.421539,553.471802 233.207489,550.033081 
	C231.014435,548.586731 229.464386,546.831970 229.673828,543.914551 
	C229.884048,540.986572 232.250656,540.671753 234.203918,540.016174 
	C243.654160,536.844238 249.650391,530.371643 252.210663,520.870911 
	C254.906616,510.866760 254.911652,500.739502 251.566895,490.902222 
	C247.715149,479.573822 238.585327,472.343719 228.065826,472.269348 
	C216.144638,472.185059 208.239212,478.286560 203.078049,488.893341 
	C200.093109,495.027710 200.118118,501.533691 199.692978,507.885742 
	C199.015427,518.008850 203.298813,534.892822 217.921234,539.147217 
	C219.908051,539.725281 222.218170,540.325745 222.386551,543.164917 
	C222.563019,546.140198 221.254974,548.388367 218.841797,549.866516 
	C214.677246,552.417419 210.098907,552.892944 205.346954,552.005737 
	C200.433594,551.088318 195.693604,549.603943 190.540741,547.871826 
z"/>
<path fill="#000000" opacity="1.000000" stroke="none" 
	d="
M326.827393,446.167114 
	C321.103302,435.399933 313.547119,426.707794 304.209076,419.457977 
	C299.748138,415.994629 299.943420,414.515533 304.423431,411.214905 
	C320.504669,399.367218 341.264099,401.297180 353.356628,415.780151 
	C354.716980,417.409424 356.477814,418.989075 354.388123,422.126709 
	C342.553314,417.016235 330.263184,413.540344 316.173950,419.096039 
	C329.907104,427.172882 341.430756,436.222137 340.986237,453.080963 
	C340.835083,458.813660 339.230743,464.654480 334.684448,470.723389 
	C331.748932,461.769409 330.725159,453.662964 326.827393,446.167114 
M339.979156,408.416809 
	C325.715485,403.314423 311.209167,406.197723 303.592010,416.122925 
	C319.616516,428.097137 331.236542,443.279388 334.997223,464.546631 
	C340.814453,454.184265 339.481873,443.146698 332.494202,434.950653 
	C327.897461,429.559021 322.436859,425.314667 316.243591,421.937622 
	C314.920776,421.216309 313.590851,420.264465 313.800446,418.498871 
	C314.001404,416.806458 315.636139,416.791962 316.840424,416.369141 
	C324.540344,413.665619 332.367798,412.810822 340.337830,415.014740 
	C344.201996,416.083282 348.015686,417.334442 352.149109,418.593323 
	C349.326843,413.681274 345.166016,411.002380 339.979156,408.416809 
z"/>
<path fill="#000000" opacity="1.000000" stroke="none" 
	d="
M149.967224,416.699890 
	C145.392929,421.980774 140.136353,426.114685 136.206665,431.585449 
	C128.899216,441.758636 123.666229,452.718750 122.062599,465.261810 
	C121.857552,466.865662 121.244881,468.417419 120.797798,470.079742 
	C114.741127,466.020020 111.940231,451.370209 114.981186,441.850708 
	C118.205368,431.757660 126.346786,425.853699 134.701248,419.236389 
	C124.636475,415.111053 115.491180,415.407867 106.323059,418.999054 
	C104.309265,419.787842 102.338295,420.685394 100.338943,421.511902 
	C99.218025,421.975342 98.036674,422.272949 97.127014,421.182709 
	C96.044762,419.885651 96.805618,418.728699 97.549507,417.564178 
	C104.330681,406.948395 118.180595,401.282959 130.706573,404.090668 
	C136.118149,405.303711 141.195038,407.394318 145.709900,410.642029 
	C147.692596,412.068207 149.965927,413.423004 149.967224,416.699890 
M118.182831,462.484955 
	C119.984512,462.727448 120.006828,462.732391 120.486931,460.566833 
	C124.173241,443.939484 132.366669,429.932770 145.191544,418.751831 
	C147.979706,416.321045 147.313232,414.884399 144.993118,412.852081 
	C136.987808,405.839783 120.875519,403.517273 111.498207,408.397186 
	C107.229683,410.618530 103.053192,413.183044 100.724274,419.077911 
	C111.666351,413.712067 122.041061,412.967072 132.676697,415.846344 
	C134.168747,416.250275 136.117691,416.302948 136.416565,418.527954 
	C136.676453,420.462830 135.557877,421.645294 134.201553,422.704193 
	C132.758163,423.831085 131.291061,424.927704 129.852509,426.060699 
	C118.016357,435.382843 112.357849,446.764893 118.182831,462.484955 
z"/>
<path fill="#000000" opacity="1.000000" stroke="none" 
	d="
M296.905121,490.241516 
	C293.631653,497.407562 287.782990,500.532227 280.753326,499.183380 
	C274.756165,498.032623 269.993835,492.439941 269.666595,486.163483 
	C269.299469,479.121429 272.730774,473.885468 278.930206,472.027954 
	C289.766083,468.781219 298.184326,477.062653 296.905121,490.241516 
M274.647369,477.180450 
	C272.953949,478.939575 272.247009,481.191620 271.847290,483.476105 
	C270.979584,488.435425 273.132172,492.263977 277.031738,495.038116 
	C281.202240,498.004913 285.798431,498.186768 290.163208,495.542480 
	C294.268555,493.055328 295.749603,489.201172 294.891754,484.413757 
	C293.034515,474.048645 284.238586,470.567810 274.647369,477.180450 
z"/>
<path fill="#000000" opacity="1.000000" stroke="none" 
	d="
M173.586090,471.728455 
	C180.903381,473.926697 184.092102,477.714447 184.329376,484.008179 
	C184.619278,491.698456 182.611160,495.632263 177.226868,497.921814 
	C170.982483,500.577087 165.017456,499.541260 160.807755,494.896576 
	C156.662201,490.322632 156.410568,484.880371 158.543137,479.536682 
	C161.115219,473.091736 166.616653,471.207947 173.586090,471.728455 
M177.078629,475.318176 
	C171.201096,472.471680 166.036957,473.278198 162.237610,477.636047 
	C158.882675,481.484039 158.407974,487.345032 161.108673,491.574463 
	C164.141922,496.324677 169.472244,497.974335 175.084076,496.525299 
	C181.698502,494.817413 186.458817,483.420685 177.078629,475.318176 
z"/>
<path fill="#000000" opacity="1.000000" stroke="none" 
	d="
M874.736755,462.891418 
	C878.984558,449.642059 881.296997,436.192261 885.895081,423.480438 
	C886.630066,423.557495 887.365051,423.634552 888.100098,423.711609 
	C892.306702,439.230591 896.513367,454.749542 900.907593,470.960510 
	C891.075378,471.556488 882.225403,471.508362 873.385437,470.993225 
	C872.747131,467.907135 874.082947,465.663574 874.736755,462.891418 
M896.670898,463.486237 
	C893.549194,452.039246 890.427551,440.592285 887.305847,429.145325 
	C886.930664,429.135101 886.555420,429.124847 886.180237,429.114624 
	C882.655762,442.308014 879.131348,455.501404 875.358887,469.623322 
	C881.935730,469.623322 887.541504,469.567139 893.145508,469.642059 
	C897.214600,469.696411 898.155029,467.806641 896.670898,463.486237 
z"/>
<path fill="#000000" opacity="1.000000" stroke="none" 
	d="
M692.402954,443.550751 
	C694.518005,437.018921 694.502075,430.183075 699.322693,423.327606 
	C703.726868,439.867340 707.772522,455.060608 712.011963,470.981628 
	C702.854797,471.686157 694.560974,471.519806 685.712463,470.915649 
	C687.075928,461.309814 690.382019,452.787201 692.402954,443.550751 
M705.656677,469.558685 
	C708.904358,468.944458 708.859436,466.955658 708.104675,464.322174 
	C705.726562,456.024994 703.534668,447.674683 701.210571,439.361725 
	C700.490112,436.784851 700.719238,433.825775 697.897522,431.201569 
	C694.877869,442.739899 692.121033,453.819122 689.027222,464.803375 
	C687.928467,468.704376 689.541138,469.636658 692.842102,469.637543 
	C696.832336,469.638611 700.822632,469.626831 705.656677,469.558685 
z"/>
<path fill="#000000" opacity="1.000000" stroke="none" 
	d="
M923.198303,561.006592 
	C925.331421,565.651245 923.749695,568.946289 920.057617,571.053101 
	C914.631775,574.149292 911.714661,572.293152 911.653442,566.088562 
	C911.651794,565.922791 911.623962,565.751099 911.656860,565.592224 
	C912.189270,563.018677 910.112427,559.338074 913.581909,558.085876 
	C916.902161,556.887512 920.489868,557.514160 923.198303,561.006592 
M921.245667,562.379150 
	C920.802368,561.897705 920.441467,561.273376 919.900452,560.961304 
	C918.202698,559.981934 916.107849,558.446472 914.476013,560.009460 
	C912.219543,562.170593 913.668030,565.319397 913.693054,568.014587 
	C913.707886,569.617920 915.333496,569.882324 916.736572,569.720764 
	C919.537537,569.398132 921.230347,567.839844 921.631775,565.020264 
	C921.722290,564.384216 921.569946,563.713562 921.245667,562.379150 
z"/>
<path fill="#000000" opacity="1.000000" stroke="none" 
	d="
M614.633118,566.857117 
	C615.233704,564.615051 615.775818,562.762817 616.317993,560.910583 
	C616.819092,560.849548 617.320190,560.788513 617.821289,560.727478 
	C619.683838,565.920898 621.856140,571.262207 621.836731,576.746887 
	C621.825012,580.064148 617.770264,577.944092 615.568359,578.264038 
	C613.208130,578.607056 612.202209,577.171814 612.670044,574.920227 
	C613.205872,572.341858 613.931519,569.802979 614.633118,566.857117 
M619.241272,574.948608 
	C619.341125,572.833496 618.967896,570.858765 617.633240,568.837830 
	C614.933228,570.766724 615.286926,573.457703 614.691162,575.977478 
	C616.393494,576.750061 617.708374,576.658203 619.241272,574.948608 
z"/>
<path fill="#000000" opacity="1.000000" stroke="none" 
	d="
M519.819885,567.455811 
	C520.445618,571.048340 522.402832,573.987793 521.916199,577.408508 
	C519.700989,578.934082 517.349243,578.261719 515.084534,578.206482 
	C513.433472,578.166199 512.852600,577.140076 512.790039,575.587463 
	C512.702454,573.416626 515.844299,563.925598 517.453552,561.808472 
	C519.437866,563.046631 519.062195,565.279724 519.819885,567.455811 
M518.583923,570.505249 
	C518.357117,569.766357 518.320984,568.884338 517.284546,568.739868 
	C514.361694,574.786560 514.379028,574.877136 518.574402,575.417786 
	C519.626099,574.017334 518.726685,572.561890 518.583923,570.505249 
z"/>
<path fill="#000000" opacity="1.000000" stroke="none" 
	d="
M652.650635,557.803833 
	C659.557556,558.253906 661.689514,564.340515 659.059875,569.029480 
	C657.057800,572.599487 653.784729,572.657898 650.428223,572.250977 
	C646.621704,571.789551 647.498840,568.570312 647.774048,566.419312 
	C648.194214,563.134277 645.061279,557.662170 652.650635,557.803833 
M653.166260,570.576050 
	C656.710510,569.759338 658.253906,567.232239 657.448425,564.001831 
	C656.603394,560.612366 653.785828,559.739319 649.683716,560.674866 
	C651.203674,563.949341 647.645447,568.075989 653.166260,570.576050 
z"/>
<path fill="#000000" opacity="1.000000" stroke="none" 
	d="
M856.252441,573.010010 
	C856.114197,576.803467 855.717102,580.118530 854.021790,583.067200 
	C851.921570,586.720032 848.394043,587.852112 844.603210,587.005432 
	C840.960693,586.191711 842.226990,582.743530 842.154724,580.298279 
	C841.983215,574.491577 842.086975,568.677185 842.037354,562.866272 
	C841.996643,558.105469 843.888245,556.543823 848.397644,558.026978 
	C851.862427,559.166626 854.593201,561.273193 855.232788,565.195801 
	C855.631714,567.641785 855.920776,570.105713 856.252441,573.010010 
M853.714294,570.683411 
	C853.615601,566.627625 853.463379,562.558838 848.867249,560.745544 
	C847.097839,560.047485 844.668213,559.678772 844.564941,562.222412 
	C844.259949,569.728333 844.455994,577.254700 844.455994,584.903320 
	C849.505920,585.027222 852.013977,583.078796 853.099854,578.955261 
	C853.746704,576.498779 853.667175,574.042236 853.714294,570.683411 
z"/>
<path fill="#000000" opacity="1.000000" stroke="none" 
	d="
M689.229370,558.107422 
	C693.602661,560.324463 694.990967,563.521484 693.590881,567.775757 
	C692.234192,571.898499 688.775696,572.262329 685.140137,572.322937 
	C682.555969,572.366028 681.564270,571.113159 681.672791,568.662048 
	C681.731323,567.338989 681.662170,566.010559 681.659302,564.684509 
	C681.643555,557.433838 681.644470,557.433838 689.229370,558.107422 
M683.478027,567.036255 
	C683.371338,569.783447 684.374634,571.231384 687.333435,570.221375 
	C690.298462,569.209229 692.160339,567.389160 691.602356,563.957825 
	C691.132568,561.068848 688.920532,560.152588 686.537476,560.283386 
	C682.404663,560.510254 683.720581,563.905518 683.478027,567.036255 
z"/>
</svg>